<svg width="166" height="52" viewBox="0 0 166 52" fill="none" xmlns="http://www.w3.org/2000/svg">
<path d="M3.19032 19.4055C1.65771 17.8319 0.670834 15.5398 0.670834 12.6838C0.62246 10.2348 1.505 7.85859 3.1403 6.0349C3.8674 5.23963 4.75079 4.60297 5.73522 4.16476C6.71965 3.72654 7.78391 3.49619 8.86144 3.48813C12.7407 3.48813 15.4785 6.21681 15.4921 8.54984C15.4921 9.80504 14.6963 10.7737 13.6185 10.7737C13.1138 10.7785 12.6262 10.5916 12.2541 10.2507C12.0592 10.063 11.9058 9.83653 11.804 9.58584C11.7022 9.33515 11.6541 9.06587 11.6629 8.79542C11.6755 8.22987 11.9109 7.69216 12.3178 7.29919C11.997 6.77373 11.5393 6.34544 10.9937 6.06024C10.4482 5.77503 9.83526 5.64365 9.22072 5.68017C8.55164 5.68698 7.8955 5.86532 7.31504 6.19815C6.73458 6.53098 6.24922 7.00716 5.90536 7.58116C4.99394 9.11131 4.54386 10.8721 4.60924 12.652C4.54042 14.4405 5.0059 16.209 5.94629 17.7319C6.29801 18.3052 6.78782 18.7813 7.37095 19.1165C7.95408 19.4518 8.61193 19.6356 9.28439 19.651C10.867 19.651 11.8766 18.9279 12.386 18.0366C12.1828 17.8442 12.0202 17.6131 11.9077 17.3569C11.7953 17.1008 11.7352 16.8246 11.7311 16.5449C11.7222 16.2742 11.7698 16.0045 11.8708 15.7532C11.9718 15.5019 12.124 15.2743 12.3178 15.085C12.699 14.7413 13.1961 14.5544 13.7094 14.562C14.7872 14.562 15.5786 15.5307 15.5786 16.7814C15.5786 19.1371 12.8499 21.8385 8.9524 21.8476C7.87716 21.8485 6.81277 21.6326 5.82278 21.213C4.83279 20.7934 3.93749 20.1787 3.19032 19.4055ZM3.19032 19.4055C1.65771 17.8319 0.670834 15.5398 0.670834 12.6838C0.62246 10.2348 1.505 7.85859 3.1403 6.0349C3.8674 5.23963 4.75079 4.60297 5.73522 4.16476C6.71965 3.72654 7.78391 3.49619 8.86144 3.48813C12.7407 3.48813 15.4785 6.21681 15.4921 8.54984C15.4921 9.80504 14.6963 10.7737 13.6185 10.7737C13.1138 10.7785 12.6262 10.5916 12.2541 10.2507C12.0592 10.063 11.9058 9.83653 11.804 9.58584C11.7022 9.33515 11.6541 9.06587 11.6629 8.79542C11.6755 8.22987 11.9109 7.69216 12.3178 7.29919C11.997 6.77373 11.5393 6.34544 10.9937 6.06024C10.4482 5.77503 9.83526 5.64365 9.22072 5.68017C8.55164 5.68698 7.8955 5.86532 7.31504 6.19815C6.73458 6.53098 6.24922 7.00716 5.90536 7.58116C4.99394 9.11131 4.54386 10.8721 4.60924 12.652C4.54042 14.4405 5.0059 16.209 5.94629 17.7319C6.29801 18.3052 6.78782 18.7813 7.37095 19.1165C7.95408 19.4518 8.61193 19.6356 9.28439 19.651C10.867 19.651 11.8766 18.9279 12.386 18.0366C12.1828 17.8442 12.0202 17.6131 11.9077 17.3569C11.7953 17.1008 11.7352 16.8246 11.7311 16.5449C11.7222 16.2742 11.7698 16.0045 11.8708 15.7532C11.9718 15.5019 12.124 15.2743 12.3178 15.085C12.699 14.7413 13.1961 14.5544 13.7094 14.562C14.7872 14.562 15.5786 15.5307 15.5786 16.7814C15.5786 19.1371 12.8499 21.8385 8.9524 21.8476C7.87716 21.8485 6.81277 21.6326 5.82278 21.213C4.83279 20.7934 3.93749 20.1787 3.19032 19.4055ZM3.19032 19.4055C1.65771 17.8319 0.670834 15.5398 0.670834 12.6838C0.62246 10.2348 1.505 7.85859 3.1403 6.0349C3.8674 5.23963 4.75079 4.60297 5.73522 4.16476C6.71965 3.72654 7.78391 3.49619 8.86144 3.48813C12.7407 3.48813 15.4785 6.21681 15.4921 8.54984C15.4921 9.80504 14.6963 10.7737 13.6185 10.7737C13.1138 10.7785 12.6262 10.5916 12.2541 10.2507C12.0592 10.063 11.9058 9.83653 11.804 9.58584C11.7022 9.33515 11.6541 9.06587 11.6629 8.79542C11.6755 8.22987 11.9109 7.69216 12.3178 7.29919C11.997 6.77373 11.5393 6.34544 10.9937 6.06024C10.4482 5.77503 9.83526 5.64365 9.22072 5.68017C8.55164 5.68698 7.8955 5.86532 7.31504 6.19815C6.73458 6.53098 6.24922 7.00716 5.90536 7.58116C4.99394 9.11131 4.54386 10.8721 4.60924 12.652C4.54042 14.4405 5.0059 16.209 5.94629 17.7319C6.29801 18.3052 6.78782 18.7813 7.37095 19.1165C7.95408 19.4518 8.61193 19.6356 9.28439 19.651C10.867 19.651 11.8766 18.9279 12.386 18.0366C12.1828 17.8442 12.0202 17.6131 11.9077 17.3569C11.7953 17.1008 11.7352 16.8246 11.7311 16.5449C11.7222 16.2742 11.7698 16.0045 11.8708 15.7532C11.9718 15.5019 12.124 15.2743 12.3178 15.085C12.699 14.7413 13.1961 14.5544 13.7094 14.562C14.7872 14.562 15.5786 15.5307 15.5786 16.7814C15.5786 19.1371 12.8499 21.8385 8.9524 21.8476C7.87716 21.8485 6.81277 21.6326 5.82278 21.213C4.83279 20.7934 3.93749 20.1787 3.19032 19.4055ZM59.0829 13.325C59.333 13.325 59.4013 13.2614 59.4467 13.1795C59.5007 13.0343 59.5224 12.8791 59.5104 12.7247C59.5063 12.4144 59.4407 12.108 59.3176 11.8231C59.1944 11.5382 59.0161 11.2805 58.7929 11.0649C58.5697 10.8493 58.3059 10.68 58.017 10.5668C57.728 10.4536 57.4194 10.3987 57.1092 10.4053C55.29 10.4053 54.5578 11.8606 54.4441 13.325H59.0829ZM23.037 15.417C21.6362 15.4443 20.7267 16.0992 20.7267 17.3908C20.7149 17.6701 20.7625 17.9488 20.8663 18.2084C20.9701 18.468 21.1278 18.7027 21.3289 18.8969C21.53 19.0911 21.77 19.2405 22.0331 19.3353C22.2961 19.43 22.5763 19.4678 22.8551 19.4464C23.2887 19.4302 23.7138 19.3202 24.1009 19.1239C24.4879 18.9277 24.8278 18.6498 25.0971 18.3094V16.5176C25.0812 16.3642 25.0265 16.2173 24.9382 16.0908C24.8499 15.9643 24.7309 15.8623 24.5923 15.7945C24.1243 15.5353 23.5942 15.4095 23.0597 15.4307L23.037 15.417ZM76.0735 14.703C76.0735 18.1685 77.588 19.6556 79.066 19.6601C80.7532 19.6601 81.9766 18.1685 81.9902 15.2488C82.0413 13.9941 81.7252 12.7518 81.0807 11.6742C80.8569 11.2946 80.5396 10.9786 80.1591 10.7565C79.7785 10.5344 79.3474 10.4135 78.9068 10.4053C77.1514 10.4053 76.0599 11.9971 76.0508 14.6939L76.0735 14.703ZM32.0689 21.2974C31.5232 21.1518 31.1594 20.8426 31.1594 20.3878C31.1661 20.19 31.2157 19.996 31.3049 19.8193L31.3367 19.7511H31.4049C31.72 19.6921 32.0172 19.5614 32.2736 19.3691C32.5919 19.1008 32.7283 18.7278 32.7283 17.6818V12.4064C32.7011 11.4968 32.4919 11.2058 31.7551 11.183C31.5581 11.1868 31.3617 11.2081 31.1684 11.2467H31.0548L31.0138 11.1421C30.9372 10.9591 30.897 10.7629 30.8956 10.5645C30.8956 9.51398 32.0644 8.97733 32.8466 8.7454C33.1242 8.65401 33.4139 8.60495 33.7061 8.59987C34.7658 8.59987 35.3388 9.34571 35.5889 10.3053C36.2847 9.18653 37.408 8.44524 38.4722 8.44069C38.735 8.42716 38.9978 8.46705 39.2447 8.55793C39.4916 8.64882 39.7175 8.78882 39.9088 8.96948C40.1001 9.15013 40.2528 9.36769 40.3576 9.60902C40.4624 9.85034 40.5173 10.1104 40.5187 10.3735C40.5279 10.6071 40.4909 10.8401 40.4099 11.0594C40.3288 11.2786 40.2054 11.4797 40.0466 11.6512C39.8877 11.8227 39.6967 11.9612 39.4843 12.0588C39.2719 12.1564 39.0423 12.2111 38.8088 12.2199C38.4326 12.2271 38.0656 12.103 37.771 11.8689C37.4764 11.6349 37.2724 11.3055 37.1943 10.9374C36.594 11.1375 35.739 11.8879 35.7299 14.4847V17.6682C35.7299 18.7096 35.88 19.0826 36.1847 19.3509C36.537 19.555 36.9267 19.6865 37.3307 19.7375H37.399L37.4308 19.8057C37.5269 19.9951 37.5812 20.2029 37.59 20.4151C37.59 20.8426 37.2716 21.1382 36.7532 21.2792C35.996 21.453 35.2191 21.5248 34.4429 21.4929C33.6377 21.5233 32.832 21.4484 32.0462 21.2701L32.0689 21.2974ZM42.5926 21.2701C42.0468 21.1245 41.683 20.8153 41.683 20.3605C41.6897 20.1627 41.7393 19.9687 41.8285 19.792L41.8604 19.7238H41.9286C42.2424 19.6654 42.5383 19.5346 42.7927 19.3418C43.111 19.0735 43.2474 18.7006 43.2474 17.6546V12.4064C43.2474 11.4968 43.0155 11.2058 42.2788 11.183C42.0817 11.1868 41.8854 11.2081 41.6921 11.2467H41.5784L41.5375 11.1421C41.4595 10.9593 41.4178 10.7632 41.4147 10.5645C41.4374 9.51398 42.588 8.97733 43.3702 8.7454C43.6477 8.65367 43.9375 8.6046 44.2298 8.59987C45.2939 8.59987 45.8624 9.34571 46.1126 10.3098C46.8084 9.18653 47.9317 8.44524 48.9913 8.44524C49.2539 8.43107 49.5165 8.47037 49.7634 8.56074C50.0103 8.65111 50.2363 8.79067 50.4277 8.97097C50.619 9.15127 50.7718 9.36855 50.8766 9.60963C50.9815 9.85072 51.0364 10.1106 51.0378 10.3735C51.0615 10.8396 50.9005 11.2962 50.5898 11.6444C50.2791 11.9926 49.8436 12.2043 49.3779 12.2336C49.0015 12.2416 48.6341 12.1178 48.3393 11.8836C48.0444 11.6494 47.8407 11.3196 47.7634 10.9511C47.1631 11.1512 46.3036 11.9016 46.2945 14.4984V17.6818C46.2945 18.7233 46.4491 19.0962 46.7492 19.3645C47.1019 19.568 47.4915 19.6994 47.8953 19.7511H47.9635L47.9953 19.8193C48.0901 20.009 48.1429 20.2168 48.15 20.4287C48.15 20.8562 47.8362 21.1518 47.3177 21.2928C46.5621 21.4664 45.7867 21.5383 45.012 21.5066C44.2053 21.5371 43.398 21.4622 42.6107 21.2837L42.5926 21.2701ZM64.9268 21.2837C64.3811 21.1336 64.0173 20.8289 64.0173 20.3741C64.024 20.1763 64.0736 19.9824 64.1628 19.8057L64.1901 19.742H64.2629C64.5779 19.683 64.8751 19.5523 65.1315 19.36C65.4453 19.0917 65.5863 18.7187 65.5863 17.6727V10.7646L63.7217 10.701L63.6898 10.6191C63.6004 10.4122 63.5525 10.1896 63.5489 9.96421C63.5474 9.81201 63.5771 9.66113 63.6362 9.52088C63.6954 9.38062 63.7826 9.25396 63.8925 9.1487C64.0024 9.04345 64.1328 8.96184 64.2755 8.9089C64.4182 8.85596 64.5702 8.83282 64.7222 8.8409H65.5363V8.03594C65.5363 6.18043 65.8819 5.12534 66.3549 4.39769C67.078 3.26983 68.3423 2.4967 70.2614 2.4967C72.6763 2.4967 74.6955 3.62456 74.7092 5.42549C74.7215 5.65487 74.6872 5.88435 74.6084 6.10011C74.5296 6.31587 74.4079 6.51343 74.2506 6.68087C74.0934 6.84832 73.9038 6.98217 73.6935 7.07437C73.4831 7.16657 73.2562 7.2152 73.0265 7.21733C72.598 7.21162 72.1883 7.04039 71.8831 6.73947C71.5779 6.43855 71.401 6.03127 71.3893 5.60286C71.3938 5.28018 71.4883 4.96516 71.6622 4.6933C71.3124 4.44547 70.8897 4.32216 70.4615 4.34312C70.184 4.31357 69.9037 4.36273 69.6528 4.48498C69.4019 4.60722 69.1904 4.79761 69.0426 5.03438C68.7729 5.58646 68.6522 6.19945 68.6924 6.81258V8.80452H71.8759L71.9123 8.89093C72.0032 9.10204 72.0496 9.32961 72.0487 9.55945C72.0595 9.87353 71.9503 10.1799 71.7434 10.4164C71.5364 10.653 71.2472 10.8018 70.9345 10.8328C70.698 10.8328 70.4434 10.8328 70.216 10.8328C69.6839 10.8328 69.1563 10.7965 68.7652 10.7874V17.6818C68.7652 18.7187 68.9426 19.0917 69.2564 19.3645C69.6652 19.5694 70.1071 19.7003 70.5616 19.7511H70.6298L70.6616 19.8193C70.7437 19.9818 70.7887 20.1604 70.7935 20.3423C70.7935 20.7971 70.4024 21.1154 69.8203 21.2519C68.9969 21.4364 68.1532 21.5144 67.3099 21.4838C66.5002 21.5138 65.69 21.4389 64.8996 21.261L64.9268 21.2837ZM102.947 21.261C102.401 21.1154 102.037 20.8062 102.037 20.3514C102.043 20.1521 102.093 19.9565 102.183 19.7784L102.21 19.7147H102.278C102.591 19.655 102.885 19.5226 103.138 19.3281C103.465 19.0644 103.592 18.6915 103.592 17.6455V12.4064C103.57 11.4968 103.365 11.2058 102.628 11.183C102.431 11.1868 102.235 11.2081 102.042 11.2467H101.928L101.882 11.1421C101.81 10.9612 101.771 10.7685 101.769 10.5736C101.769 9.51852 102.942 8.97733 103.72 8.75449C104.002 8.66229 104.296 8.61323 104.593 8.60896C105.648 8.60896 106.221 9.3639 106.462 10.3417C107.153 9.20472 108.254 8.45434 109.336 8.44979C109.599 8.43494 109.863 8.47392 110.11 8.56432C110.358 8.65473 110.584 8.79467 110.776 8.97559C110.967 9.1565 111.12 9.37459 111.224 9.61652C111.329 9.85844 111.383 10.1191 111.383 10.3826C111.393 10.615 111.358 10.8471 111.278 11.0657C111.199 11.2844 111.077 11.4852 110.92 11.6567C110.763 11.8282 110.573 11.967 110.362 12.0652C110.151 12.1634 109.923 12.2191 109.691 12.229C109.313 12.2376 108.944 12.1143 108.646 11.8803C108.349 11.6463 108.143 11.3161 108.063 10.9465C107.467 11.1421 106.621 11.8925 106.612 14.4938V17.6773C106.612 18.7187 106.762 19.0962 107.067 19.36C107.421 19.5609 107.81 19.6921 108.213 19.7465H108.281L108.313 19.8148C108.412 20.0049 108.468 20.2145 108.477 20.4287C108.477 20.8562 108.158 21.1473 107.644 21.2883C106.89 21.4619 106.116 21.5338 105.343 21.502C104.538 21.5324 103.732 21.4575 102.947 21.2792V21.261ZM78.9068 21.6794C77.2099 21.6987 75.5745 21.0445 74.359 19.8602C73.7397 19.2261 73.2533 18.4746 72.9284 17.6499C72.6035 16.8252 72.4467 15.9439 72.4671 15.0578C72.458 14.194 72.6212 13.3371 72.9472 12.5371C73.2731 11.7371 73.7553 11.0102 74.3654 10.3987C74.9756 9.78728 75.7016 9.30361 76.5009 8.976C77.3001 8.64839 78.1567 8.48342 79.0205 8.49072C79.8766 8.46923 80.7284 8.61909 81.5258 8.93148C82.3232 9.24388 83.0501 9.71251 83.6638 10.3098C84.2652 10.944 84.7355 11.6907 85.0476 12.507C85.3598 13.3233 85.5077 14.1932 85.483 15.0669C85.5172 15.9413 85.3708 16.8134 85.0529 17.6288C84.7351 18.4441 84.2525 19.1852 83.6354 19.8057C83.0183 20.4262 82.2799 20.9128 81.4663 21.2352C80.6528 21.5576 79.7814 21.7088 78.9068 21.6794ZM51.0697 15.3124C51.0167 13.509 51.6581 11.7541 52.8615 10.4099C53.4682 9.77975 54.1999 9.28348 55.0097 8.95297C55.8196 8.62245 56.6896 8.46499 57.5639 8.49072C58.2909 8.46096 59.0159 8.58676 59.6904 8.85969C60.3649 9.13262 60.9733 9.5464 61.4751 10.0734C62.2846 10.9651 62.735 12.1252 62.7394 13.3296C62.7501 13.9519 62.6031 14.5668 62.3119 15.1169L62.2709 15.1851H54.4169C54.5487 17.459 56.004 19.0689 58.5372 19.078C59.1291 19.082 59.7154 18.9628 60.2588 18.7279C60.8022 18.493 61.2907 18.1476 61.6934 17.7137L61.7798 17.6045L61.8889 17.6864C62.0453 17.8054 62.169 17.9621 62.2485 18.1418C62.3281 18.3215 62.3608 18.5184 62.3437 18.7142C62.3437 20.0331 60.7929 21.7203 57.3684 21.7203C56.5323 21.7192 55.7048 21.5519 54.934 21.2281C54.1631 20.9043 53.4643 20.4306 52.8782 19.8343C52.2922 19.2381 51.8304 18.5312 51.52 17.755C51.2095 16.9787 51.0564 16.1484 51.0697 15.3124ZM96.375 21.1336C96.148 20.7662 95.9937 20.3586 95.9202 19.933C95.7928 20.0785 95.6428 20.2332 95.4154 20.4515C94.5574 21.2688 93.4169 21.7234 92.2319 21.7203C91.6254 21.7422 91.0215 21.6314 90.4622 21.3958C89.9029 21.1602 89.4018 20.8053 88.9939 20.356C87.866 18.9916 87.8751 17.3044 87.8751 14.8986V12.5201C87.8478 11.5787 87.5522 11.2558 86.6745 11.2285C86.5608 11.2285 86.438 11.2285 86.3016 11.2285H86.197L86.1606 11.1284C86.0925 10.9704 86.0569 10.8003 86.056 10.6282C86.0833 9.49578 87.5158 8.89547 88.3526 8.71811C88.6307 8.66904 88.9118 8.63866 89.194 8.62715C89.4753 8.60574 89.7578 8.65006 90.019 8.75662C90.2803 8.86317 90.5132 9.02904 90.6993 9.24111C91.0258 9.69672 91.1863 10.2505 91.1541 10.8101V14.7985C91.1541 16.272 91.2587 17.3726 91.5861 18.082C91.7261 18.421 91.9715 18.7058 92.2861 18.8942C92.6007 19.0826 92.9676 19.1646 93.3325 19.128C93.7312 19.1511 94.1285 19.0624 94.4796 18.872C94.8307 18.6816 95.1217 18.397 95.3199 18.0502C95.6738 17.3431 95.8413 16.5572 95.8065 15.7672V12.5383C95.7792 11.5969 95.4836 11.2694 94.6059 11.2467C94.4816 11.2404 94.3572 11.2404 94.2329 11.2467H94.1283L94.0874 11.1466C94.0229 10.9877 93.989 10.8179 93.9874 10.6464C94.0146 9.51398 95.4427 8.91366 96.2886 8.7363C96.5651 8.687 96.8447 8.65661 97.1254 8.64534C97.4074 8.62321 97.6908 8.66718 97.9529 8.77376C98.215 8.88034 98.4486 9.04659 98.6352 9.2593C98.9638 9.71392 99.1245 10.2684 99.09 10.8283C99.09 11.2831 99.0445 12.0971 99.0445 15.4943C99.0445 16.9315 99.0445 17.6955 99.0445 17.9274C99.0445 18.9052 99.3947 19.3418 100.3 19.36H100.609H100.714L100.75 19.46C100.815 19.6159 100.85 19.7824 100.855 19.9512C100.818 21.0518 99.3856 21.4929 98.5534 21.6612C98.2948 21.7072 98.0335 21.7361 97.7711 21.7476C97.5112 21.7697 97.2499 21.7258 97.0114 21.6201C96.7729 21.5143 96.565 21.3502 96.4068 21.1427L96.375 21.1336ZM17.2703 17.6091C17.2588 17.033 17.3878 16.4628 17.6461 15.9477C17.9044 15.4326 18.2843 14.9883 18.7529 14.653C19.857 13.9178 21.1659 13.5515 22.4912 13.607C23.3732 13.5947 24.2496 13.749 25.0744 14.0618V12.6611C25.0744 11.2421 24.515 10.4326 22.9233 10.4144C22.4101 10.4309 21.9018 10.5197 21.4134 10.6782C21.4652 10.8804 21.4927 11.088 21.4953 11.2967C21.5025 11.7498 21.3403 12.1893 21.0405 12.5292C20.8871 12.6934 20.701 12.8235 20.4942 12.9113C20.2874 12.999 20.0645 13.0424 19.8399 13.0385C19.6227 13.0356 19.4083 12.9896 19.209 12.9032C19.0097 12.8168 18.8296 12.6917 18.679 12.5352C18.5284 12.3787 18.4104 12.1939 18.3317 11.9914C18.2531 11.789 18.2154 11.573 18.2208 11.3558C18.2208 9.63222 20.3356 8.47253 23.1279 8.47253C25.3473 8.47253 26.7389 8.99552 27.4802 9.95056C28.1533 10.8101 28.1851 12.0607 28.1896 13.8298V18.4459C28.1896 19.3554 28.7081 19.5783 29.8177 19.7511H29.9451V19.8784C29.8814 21.0927 28.9855 21.5975 28.0259 21.6976C27.9426 21.7021 27.8591 21.7021 27.7758 21.6976C27.301 21.7109 26.8326 21.5849 26.4286 21.3352C26.0245 21.0854 25.7024 20.7229 25.5019 20.2923C24.4789 21.177 23.1835 21.6842 21.8318 21.7294C19.2532 21.7294 17.284 19.9876 17.284 17.6045" fill="#1E5BC6"/>
<path d="M48.2271 34.8271C48.9758 35.315 49.8369 35.603 50.7284 35.6639C51.4606 35.6639 52.0563 35.3319 52.0563 34.5451C52.0563 33.7584 51.3924 33.5173 50.5692 33.2718C49.2958 32.9034 47.8405 32.485 47.8405 30.6704C47.8405 28.8558 49.3413 27.8917 51.024 27.8917C52.2072 27.8702 53.3512 28.3163 54.2074 29.1333L53.2115 30.3566C52.6402 29.799 51.8887 29.4635 51.0922 29.4107C50.4646 29.4107 49.8734 29.7245 49.8734 30.4248C49.8734 31.2298 50.6056 31.4572 51.4242 31.6982C52.7021 32.103 54.1165 32.6078 54.1165 34.4269C54.1165 36.246 52.7521 37.2192 50.8148 37.2192C49.6879 37.2311 48.5819 36.9151 47.6313 36.3097L48.2271 34.8271Z" fill="#00B1FD"/>
<path d="M58.9873 27.8918C60.2789 27.8918 62.7938 28.2965 62.7938 32.3122C62.7938 35.664 61.0156 37.2011 58.7008 37.2011C56.3859 37.2011 54.9079 35.7003 54.9079 32.5396C54.917 28.9059 57.1909 27.8918 58.9873 27.8918ZM60.6654 32.5942C60.6654 30.6386 60.2106 29.4335 58.8827 29.4335C57.5547 29.4335 57.0317 30.6204 57.0317 32.2986C57.0317 33.9767 57.2955 35.6685 58.8509 35.6685C60.1242 35.664 60.6654 34.4133 60.6654 32.5942Z" fill="#00B1FD"/>
<path d="M66.341 24.8174V34.0767C66.341 35.1591 66.5683 35.5593 67.2824 35.5593C67.6636 35.5384 68.0373 35.4442 68.3829 35.2819L68.8377 36.6781C68.1991 37.0224 67.4848 37.2021 66.7594 37.2011C64.399 37.2011 64.2626 35.8368 64.2626 34.5133V24.8174H66.341Z" fill="#00B1FD"/>
<path d="M76.6646 28.1555V35.4729L76.8056 36.9419H75.0228L74.9 35.9095H74.8455C74.5629 36.3161 74.1831 36.6456 73.7407 36.868C73.2983 37.0904 72.8073 37.1987 72.3123 37.1829C70.3932 37.1829 69.429 36.1733 69.429 34.1086V28.1555H71.5074V33.7266C71.5074 34.7907 71.7029 35.5775 72.8717 35.5775C73.3185 35.5678 73.745 35.3893 74.0655 35.078C74.3861 34.7667 74.577 34.3456 74.5999 33.8994V28.1555H76.6646Z" fill="#00B1FD"/>
<path d="M82.4948 35.523C80.9394 35.523 80.2754 34.3223 80.2754 32.5032C80.2754 30.5113 81.094 29.5517 82.2674 29.5517C82.6398 29.5819 83.0007 29.6948 83.3241 29.882C83.6474 30.0692 83.9249 30.3261 84.1365 30.6341L85.4463 29.5517C85.0899 29.0302 84.6095 28.6055 84.0482 28.3158C83.487 28.026 82.8625 27.8803 82.231 27.8917C80.38 27.8917 78.1971 29.0787 78.1971 32.5896C78.1971 34.9772 79.1612 36.4871 80.8667 36.9874L79.6888 39.6569H81.2669L82.3538 37.1829C83.4154 37.1744 84.4452 36.82 85.2871 36.1733L84.5003 34.7726C83.9363 35.2429 83.229 35.5075 82.4948 35.523Z" fill="#00B1FD"/>
<path d="M89.9852 27.8918C91.2768 27.8918 93.7917 28.2965 93.7917 32.3122C93.7917 35.664 92.0135 37.2011 89.6987 37.2011C87.3838 37.2011 85.9058 35.7003 85.9058 32.5396C85.9149 28.9059 88.1842 27.8918 89.9852 27.8918ZM87.3838 24.7083C87.8052 24.3873 88.3186 24.2104 88.8482 24.2035C89.7578 24.2035 90.4036 24.6583 91.2085 24.6583C91.591 24.6488 91.9643 24.5391 92.2909 24.3399L92.4319 25.7543C92.0765 25.9772 91.6643 26.0925 91.2449 26.0863C90.4581 26.0863 89.5304 25.6861 88.8346 25.6861C88.377 25.6882 87.9288 25.8156 87.5385 26.0544L87.3838 24.7083ZM91.6724 32.5942C91.6724 30.6386 91.2176 29.4335 89.8897 29.4335C88.5617 29.4335 88.0387 30.6204 88.0387 32.2986C88.0387 33.9767 88.3025 35.6685 89.8578 35.6685C91.1221 35.664 91.6724 34.4133 91.6724 32.5942Z" fill="#00B1FD"/>
<path d="M101.846 30.3203C101.846 33.008 98.5076 33.3582 96.9023 33.3764C96.9705 34.5134 97.6163 35.6139 99.1034 35.6139C99.8984 35.5961 100.667 35.327 101.3 34.8453L101.95 36.2097C101.059 36.861 99.9798 37.2042 98.876 37.1875C95.9927 37.1875 94.783 35.3365 94.783 32.717C94.783 30.0974 96.2656 27.8781 99.0443 27.8781C100.768 27.8918 101.846 28.7649 101.846 30.3203ZM98.9488 29.3789C97.5526 29.3789 96.8886 30.7432 96.8341 32.0303C97.78 32.0303 99.9948 31.7528 99.9948 30.4067C100.005 30.2676 99.984 30.1281 99.9346 29.9978C99.8852 29.8674 99.8082 29.7493 99.7087 29.6516C99.6093 29.5539 99.4899 29.479 99.3587 29.4319C99.2275 29.3848 99.0876 29.3667 98.9488 29.3789Z" fill="#00B1FD"/>
<path d="M103.433 34.8272C104.18 35.3148 105.04 35.6029 105.93 35.664C106.662 35.664 107.258 35.332 107.258 34.5452C107.258 33.7584 106.594 33.5174 105.775 33.2718C104.497 32.9034 103.047 32.485 103.047 30.6705C103.047 28.8559 104.552 27.8918 106.23 27.8918C107.412 27.8704 108.554 28.3166 109.409 29.1333L108.413 30.3567C107.843 29.8 107.093 29.4647 106.298 29.4107C105.671 29.4107 105.075 29.7245 105.075 30.4249C105.075 31.2299 105.807 31.4572 106.63 31.6983C107.904 32.103 109.318 32.6078 109.318 34.427C109.318 36.2461 107.954 37.2193 106.016 37.2193C104.889 37.233 103.783 36.9169 102.833 36.3098L103.433 34.8272Z" fill="#00B1FD"/>
<path d="M38.8542 39.2476C39.0114 39.2414 39.1682 39.2673 39.3151 39.3236C39.4621 39.38 39.596 39.4657 39.7087 39.5754C39.8215 39.6852 39.9107 39.8168 39.971 39.9621C40.0312 40.1075 40.0613 40.2636 40.0593 40.4209C40.0608 40.5771 40.0302 40.7319 39.9695 40.8758C39.9087 41.0197 39.8191 41.1496 39.7061 41.2574C39.5932 41.3653 39.4593 41.4488 39.3127 41.5028C39.1662 41.5568 39.0101 41.5802 38.8542 41.5715C38.6974 41.5837 38.5399 41.5628 38.3918 41.51C38.2437 41.4573 38.1084 41.3739 37.9946 41.2653C37.8809 41.1568 37.7914 41.0254 37.7318 40.88C37.6723 40.7345 37.644 40.578 37.649 40.4209C37.647 40.2636 37.6771 40.1075 37.7374 39.9621C37.7976 39.8168 37.8869 39.6852 37.9996 39.5754C38.1124 39.4657 38.2463 39.38 38.3932 39.3236C38.5401 39.2673 38.6969 39.2414 38.8542 39.2476ZM37.8218 51.7222V42.9358H39.9002V51.7222H37.8218Z" fill="#00B1FD"/>
<path d="M41.8555 51.7222V44.4457L41.7146 42.9268H43.4655L43.6428 44.0273C43.9412 43.5935 44.3435 43.2414 44.813 43.003C45.2825 42.7647 45.8043 42.6478 46.3306 42.663C48.077 42.663 49.1093 43.6408 49.1093 45.7009V51.7131H47.031V46.1648C47.031 45.1006 46.8399 44.2775 45.7212 44.2775C45.4883 44.2763 45.2574 44.321 45.0417 44.409C44.8261 44.497 44.6299 44.6267 44.4644 44.7905C44.2988 44.9544 44.1672 45.1492 44.0769 45.364C43.9867 45.5787 43.9396 45.8091 43.9384 46.042V51.7222H41.8555Z" fill="#00B1FD"/>
<path d="M58.2188 50.0441L58.3779 51.7222H56.5588L56.436 50.8127H56.3678C56.0964 51.19 55.7361 51.4945 55.3188 51.6992C54.9015 51.9039 54.4402 52.0024 53.9757 51.986C51.5107 51.986 50.5512 50.2351 50.5512 47.7384C50.5512 44.664 52.0883 42.7085 55.099 42.7085C56.1608 42.7433 57.2099 42.9506 58.2051 43.3224L58.2188 50.0441ZM56.1586 44.4185C55.7409 44.2583 55.2961 44.1811 54.8488 44.1911C53.1889 44.1911 52.6295 45.7464 52.6295 47.6338C52.6295 49.0845 52.9797 50.4625 54.4486 50.4625C54.6614 50.4785 54.8752 50.4517 55.0774 50.3834C55.2795 50.3152 55.4659 50.207 55.6254 50.0653C55.785 49.9236 55.9144 49.7513 56.006 49.5586C56.0975 49.3659 56.1495 49.1567 56.1586 48.9435V44.4185Z" fill="#00B1FD"/>
<path d="M60.2106 51.7222V44.4457L60.0696 42.9268H61.8159L61.9933 44.0273C62.2917 43.5935 62.694 43.2414 63.1635 43.003C63.633 42.7647 64.1547 42.6478 64.681 42.663C66.4274 42.663 67.4598 43.6408 67.4598 45.7009V51.7131H65.3814V46.1648C65.3814 45.1006 65.1859 44.2775 64.0716 44.2775C63.8387 44.2763 63.6079 44.321 63.3922 44.409C63.1766 44.497 62.9804 44.6267 62.8148 44.7905C62.6493 44.9544 62.5176 45.1492 62.4274 45.364C62.3371 45.5787 62.2901 45.8091 62.2889 46.042V51.7222H60.2106Z" fill="#00B1FD"/>
<path d="M75.2275 49.553L76.0143 50.9537C75.1466 51.6271 74.0746 51.9834 72.9763 51.9633C70.4068 51.9633 68.9243 50.3398 68.9243 47.37C68.9243 43.8591 71.1072 42.6721 72.9582 42.6721C73.5897 42.6607 74.2141 42.8064 74.7754 43.0962C75.3366 43.3859 75.817 43.8106 76.1735 44.3321L74.8455 45.4145C74.6339 45.1065 74.3564 44.8496 74.033 44.6624C73.7097 44.4752 73.3487 44.3623 72.9763 44.3321C71.8076 44.3321 70.9844 45.2917 70.9844 47.2836C70.9844 49.1027 71.6484 50.3034 73.2037 50.3034C73.9443 50.2921 74.6586 50.0272 75.2275 49.553Z" fill="#00B1FD"/>
<path d="M83.3497 45.1007C83.3497 47.7884 80.0161 48.1386 78.4062 48.1568C78.479 49.2938 79.1248 50.3943 80.6073 50.3943C81.4039 50.3774 82.1746 50.1084 82.8085 49.6257L83.4543 50.9901C82.5634 51.6423 81.4839 51.9856 80.38 51.9679C77.4966 51.9679 76.3097 50.1169 76.3097 47.4974C76.3097 44.8778 77.7968 42.6585 80.571 42.6585C82.2855 42.6722 83.3497 43.5453 83.3497 45.1007ZM80.4527 44.1593C79.052 44.1593 78.388 45.5236 78.338 46.8107C79.2794 46.8107 81.4987 46.5332 81.4987 45.1871C81.5085 45.048 81.4879 44.9085 81.4385 44.7782C81.3892 44.6478 81.3121 44.5297 81.2127 44.432C81.1133 44.3343 80.9938 44.2594 80.8626 44.2123C80.7314 44.1652 80.5916 44.1471 80.4527 44.1593Z" fill="#00B1FD"/>
<path d="M85.6875 39.2476C85.8449 39.2414 86.0019 39.2673 86.1491 39.3236C86.2963 39.3799 86.4304 39.4655 86.5435 39.5752C86.6566 39.6849 86.7463 39.8164 86.8071 39.9618C86.8679 40.1072 86.8985 40.2633 86.8972 40.4209C86.898 40.5773 86.8669 40.7322 86.8056 40.8761C86.7444 41.02 86.6543 41.1499 86.541 41.2576C86.4276 41.3654 86.2935 41.4489 86.1467 41.5029C85.9999 41.5568 85.8436 41.5802 85.6875 41.5715C85.5309 41.583 85.3736 41.5615 85.2259 41.5085C85.0781 41.4555 84.9431 41.3721 84.8295 41.2637C84.7159 41.1553 84.6264 41.0243 84.5666 40.8791C84.5068 40.7339 84.4781 40.5778 84.4823 40.4209C84.4803 40.2636 84.5104 40.1075 84.5707 39.9621C84.6309 39.8168 84.7202 39.6852 84.8329 39.5754C84.9457 39.4657 85.0796 39.38 85.2265 39.3236C85.3734 39.2673 85.5302 39.2414 85.6875 39.2476ZM84.6597 51.7222V42.9358H86.738V51.7222H84.6597Z" fill="#00B1FD"/>
<path d="M90.79 51.7223H88.7116V44.3503L88.5525 42.9359H90.267L90.4762 44.2093C90.6274 43.7674 90.9111 43.3828 91.2887 43.1077C91.6662 42.8327 92.1193 42.6806 92.5864 42.6722C93.076 42.663 93.5593 42.7838 93.9871 43.0223L93.6187 44.7869C93.2414 44.5663 92.8141 44.4458 92.3772 44.4367C91.4358 44.4367 90.8218 45.1871 90.79 46.2013V51.7223Z" fill="#00B1FD"/>
<path d="M101.6 50.0441L101.759 51.7222H99.9401L99.8173 50.8127H99.7491C99.4777 51.19 99.1173 51.4945 98.7001 51.6992C98.2828 51.9039 97.8214 52.0024 97.3569 51.986C94.892 51.986 93.9324 50.2351 93.9324 47.7384C93.9324 44.664 95.4696 42.7085 98.4802 42.7085C99.5435 42.7436 100.594 42.9509 101.591 43.3224L101.6 50.0441ZM99.5399 44.4185C99.1221 44.2587 98.6773 44.1815 98.2301 44.1911C96.5701 44.1911 96.0107 45.7464 96.0107 47.6338C96.0107 49.0845 96.3609 50.4625 97.8299 50.4625C98.0407 50.4779 98.2525 50.4514 98.4529 50.3843C98.6534 50.3172 98.8385 50.211 98.9976 50.0718C99.1567 49.9326 99.2865 49.7632 99.3796 49.5734C99.4727 49.3836 99.5272 49.1773 99.5399 48.9663V44.4185Z" fill="#00B1FD"/>
<path d="M103.433 49.6075C104.18 50.0952 105.039 50.3833 105.93 50.4443C106.662 50.4443 107.257 50.1123 107.257 49.3256C107.257 48.5388 106.593 48.2978 105.77 48.0522C104.497 47.6838 103.064 47.2654 103.064 45.4508C103.064 43.6363 104.565 42.6721 106.248 42.6721C107.423 42.6556 108.559 43.1015 109.409 43.9137L108.413 45.137C107.839 44.5774 107.084 44.2418 106.284 44.1911C105.652 44.1911 105.061 44.5049 105.061 45.2052C105.061 46.0102 105.793 46.2376 106.616 46.4786C107.89 46.8834 109.304 47.3882 109.304 49.2073C109.304 51.0265 107.94 51.9997 106.002 51.9997C104.875 52.0115 103.769 51.6955 102.819 51.0901L103.433 49.6075Z" fill="#00B1FD"/>
<path d="M31.4775 42.422V51.7177H33.5513V44.5322H36.1345V42.9086H33.5513V42.2628C33.5513 41.3032 33.8833 40.812 34.7565 40.812C35.3347 40.8424 35.8994 40.9975 36.4119 41.2668L36.9213 39.8707C36.1649 39.4954 35.3366 39.2875 34.4927 39.2612C31.7913 39.2431 31.4775 41.0212 31.4775 42.422Z" fill="#00B1FD"/>
<path d="M133.28 1.01857C133.308 0.986581 133.342 0.960468 133.38 0.941735C133.418 0.923003 133.46 0.912023 133.503 0.909424C133.531 0.911101 133.559 0.918524 133.584 0.931243C133.609 0.943962 133.632 0.96171 133.65 0.983407C133.668 1.0051 133.682 1.0303 133.69 1.05745C133.699 1.08461 133.701 1.11316 133.698 1.14136C133.692 1.23059 133.651 1.31388 133.584 1.3733C130.669 5.01155 128.545 9.24556 128.545 15.1304C128.545 21.0153 130.669 25.172 133.584 28.7966C133.651 28.8583 133.691 28.9427 133.698 29.0331C133.701 29.0613 133.699 29.0898 133.69 29.117C133.682 29.1441 133.668 29.1693 133.65 29.191C133.632 29.2127 133.609 29.2305 133.584 29.2432C133.559 29.2559 133.531 29.2633 133.503 29.265C133.46 29.2626 133.418 29.2513 133.379 29.2317C133.341 29.2121 133.307 29.1847 133.28 29.1513L120.837 17.1315C120.518 16.894 120.259 16.5853 120.08 16.23C119.902 15.8747 119.809 15.4826 119.809 15.0849C119.809 14.6873 119.902 14.2952 120.08 13.9399C120.259 13.5846 120.518 13.2759 120.837 13.0384L133.28 1.01857Z" fill="#00B1FD"/>
<path d="M142.845 0C137.974 0 136.073 6.90357 136.073 15.1306C136.073 23.3575 137.974 30.1702 142.845 30.1702C145.769 30.1702 148.262 28.4556 148.266 27.0504C148.266 26.8892 148.233 26.7299 148.168 26.5821C148.104 26.4343 148.011 26.3011 147.893 26.1908C146.506 24.8538 145.97 23.5167 145.96 22.3343C145.966 21.3249 146.357 20.3558 147.054 19.6254C147.75 18.8949 148.7 18.4583 149.708 18.405C152.186 18.405 153.646 20.3514 153.646 22.8709C153.646 25.2585 152.628 27.2505 151.522 28.8468C151.481 28.9052 151.459 28.9752 151.459 29.0469C151.454 29.1017 151.47 29.1563 151.505 29.1988C151.54 29.2414 151.59 29.2685 151.645 29.2742C151.69 29.2701 151.734 29.2571 151.773 29.2361C151.813 29.215 151.848 29.1862 151.877 29.1515L164.297 17.1316C164.618 16.8953 164.878 16.587 165.058 16.2315C165.238 15.8761 165.331 15.4834 165.331 15.0851C165.331 14.6868 165.238 14.2941 165.058 13.9386C164.878 13.5832 164.618 13.2749 164.297 13.0386L151.877 1.01871C151.818 0.951323 151.735 0.90906 151.645 0.900466C151.618 0.902724 151.591 0.910454 151.567 0.9232C151.543 0.935945 151.521 0.953444 151.504 0.974657C151.486 0.99587 151.473 1.02036 151.466 1.04668C151.458 1.073 151.456 1.1006 151.459 1.12786C151.459 1.20088 151.481 1.27211 151.522 1.33251C152.628 2.92424 153.646 4.91618 153.646 7.29923C153.646 9.81872 152.186 11.7697 149.708 11.7697C148.699 11.7153 147.75 11.2777 147.053 10.5465C146.357 9.81532 145.966 8.84571 145.96 7.83588C145.96 6.65799 146.506 5.32094 147.893 3.98388C148.01 3.87341 148.104 3.74024 148.168 3.59246C148.232 3.44469 148.266 3.28542 148.266 3.12434C148.266 1.71452 145.769 0 142.845 0Z" fill="#1E5BC6"/>
</svg>
